<svg width="621" height="713" viewBox="0 0 621 713" fill="none" xmlns="http://www.w3.org/2000/svg">
<path d="M359.87 657.62H351.42V710.91H359.87V657.62Z" fill="white"/>
<path d="M151.89 664.71V657.62H123.35V710.9H151.89V703.8H131.81V687.74H151.08V680.64H131.81V664.71H151.89Z" fill="white"/>
<path d="M490.91 699C492.255 696.281 492.94 693.283 492.91 690.25V683.05H469.58V689.05H484.21V691.14C484.224 693.01 483.785 694.856 482.93 696.52C482.077 698.137 480.911 699.568 479.5 700.73C478.051 701.916 476.406 702.839 474.64 703.46C472.832 704.116 470.924 704.455 469 704.46C466.636 704.473 464.299 703.957 462.16 702.95C460.035 701.938 458.153 700.482 456.64 698.68C455.034 696.748 453.803 694.534 453.01 692.15C452.128 689.466 451.692 686.655 451.72 683.83C451.699 681.199 452.087 678.581 452.87 676.07C453.584 673.754 454.739 671.598 456.27 669.72C457.801 667.881 459.729 666.414 461.91 665.43C464.291 664.383 466.87 663.864 469.47 663.91C472.427 663.929 475.357 664.463 478.13 665.49C480.436 666.305 482.595 667.491 484.52 669L488.32 662.71C486.765 661.534 485.089 660.528 483.32 659.71C481.118 658.701 478.815 657.93 476.45 657.41C474.125 656.895 471.751 656.634 469.37 656.63C465.54 656.575 461.74 657.314 458.21 658.8C454.997 660.19 452.109 662.233 449.73 664.8C447.376 667.361 445.545 670.357 444.34 673.62C443.07 677.033 442.429 680.648 442.45 684.29C442.413 688.05 443.092 691.783 444.45 695.29C445.729 698.555 447.616 701.548 450.01 704.11C452.359 706.591 455.177 708.583 458.3 709.97C461.52 711.37 464.998 712.082 468.51 712.06C471.617 712.062 474.701 711.517 477.62 710.45C480.489 709.417 483.156 707.891 485.5 705.94C487.761 704.023 489.602 701.66 490.91 699Z" fill="white"/>
<path d="M38.9898 694.78C41.7269 688.047 41.7269 680.512 38.9898 673.78C36.294 667.359 31.1677 662.265 24.7298 659.61C21.3716 658.245 17.7745 657.565 14.1498 657.61H0.079834V710.89H14.1398C17.7699 710.922 21.371 710.243 24.7398 708.89C27.9334 707.581 30.841 705.662 33.2998 703.24C35.7318 700.819 37.665 697.945 38.9898 694.78ZM30.3498 691.94C29.4512 694.227 28.1088 696.314 26.3998 698.08C24.6957 699.826 22.6543 701.207 20.3998 702.14C18.0269 703.126 15.4793 703.622 12.9098 703.6H8.52983V664.92H12.9098C15.4784 664.897 18.0253 665.39 20.3998 666.37C22.6579 667.31 24.6997 668.702 26.3998 670.46C28.0962 672.238 29.4339 674.326 30.3398 676.61C32.2197 681.547 32.2197 687.003 30.3398 691.94H30.3498Z" fill="white"/>
<path d="M266.58 704.69C268.183 702.165 268.994 699.219 268.91 696.23C268.958 694.248 268.587 692.278 267.82 690.45C267.081 688.845 266.007 687.416 264.67 686.26C263.087 684.912 261.344 683.763 259.48 682.84C257.41 681.78 255.05 680.69 252.48 679.6C251.26 679.1 250.13 678.6 249.11 678.18C248.133 677.77 247.196 677.272 246.31 676.69C245.473 676.142 244.77 675.414 244.25 674.56C243.739 673.644 243.477 672.609 243.49 671.56C243.481 670.215 243.859 668.896 244.58 667.76C245.338 666.604 246.396 665.674 247.64 665.07C249.086 664.376 250.676 664.033 252.28 664.07C253.824 664.072 255.359 664.294 256.84 664.73C258.288 665.144 259.686 665.714 261.01 666.43C261.807 666.86 262.575 667.341 263.31 667.87L266.68 661.51C265.602 660.715 264.454 660.019 263.25 659.43C261.509 658.58 259.687 657.91 257.81 657.43C255.928 656.924 253.989 656.666 252.04 656.66C249.686 656.627 247.349 657.055 245.16 657.92C243.197 658.708 241.402 659.862 239.87 661.32C238.437 662.694 237.285 664.335 236.48 666.15C235.703 667.936 235.305 669.863 235.31 671.81C235.286 673.314 235.568 674.808 236.14 676.2C236.69 677.509 237.461 678.713 238.42 679.76C239.428 680.834 240.567 681.778 241.81 682.57C243.139 683.41 244.526 684.155 245.96 684.8C247.87 685.63 249.71 686.44 251.4 687.23C252.87 687.88 254.279 688.66 255.61 689.56C256.756 690.321 257.727 691.316 258.46 692.48C259.146 693.699 259.491 695.081 259.46 696.48C259.506 698.045 259.058 699.584 258.18 700.88C257.324 702.069 256.144 702.986 254.78 703.52C253.3 704.101 251.72 704.387 250.13 704.36C248.376 704.371 246.631 704.105 244.96 703.57C243.428 703.08 241.95 702.433 240.55 701.64C239.279 700.923 238.063 700.114 236.91 699.22L235.31 697.94L231.01 704.88C231.59 705.38 232.28 705.94 233.09 706.54C236.061 708.702 239.418 710.277 242.98 711.18C245.215 711.749 247.514 712.028 249.82 712.01C253.299 712.081 256.755 711.43 259.97 710.1C262.648 708.969 264.942 707.091 266.58 704.69Z" fill="white"/>
<path d="M618.66 710.9V657.62H610.2V698.16L584.23 657.62H575.21V710.9H583.66V670.36L609.64 710.9H618.66Z" fill="white"/>
<path d="M402.7 428.77H386.13V595.46H402.7V428.77Z" fill="white"/>
<path d="M477.91 428.77H461.34V595.46H477.91V428.77Z" fill="white"/>
<path d="M619.37 468.86C620.322 467.247 620.813 465.403 620.79 463.53C620.815 461.729 620.33 459.957 619.39 458.42C618.448 456.869 617.148 455.566 615.6 454.62C614.02 453.703 612.226 453.22 610.4 453.22C608.573 453.22 606.779 453.703 605.2 454.62C603.635 455.547 602.323 456.845 601.38 458.4C600.44 459.974 599.956 461.777 599.98 463.61C599.973 465.453 600.463 467.263 601.4 468.85C602.326 470.43 603.632 471.753 605.2 472.7C606.764 473.637 608.556 474.125 610.38 474.11C612.217 474.144 614.027 473.659 615.6 472.71C617.159 471.762 618.455 470.439 619.37 468.86Z" fill="white"/>
<path d="M618.67 497.23H602.1V595.45H618.67V497.23Z" fill="white"/>
<path d="M16.57 497.23H0V595.45H16.57V497.23Z" fill="white"/>
<path d="M100.2 510.43C104.575 508.105 109.466 506.922 114.42 506.99C122.03 506.99 128.24 509.61 132.87 514.78C137.5 519.95 139.76 526.92 139.76 535.58V595.43H156.35V530.31C156.35 522.65 154.79 516.04 151.69 510.67C148.726 505.46 144.329 501.212 139.02 498.43C133.264 495.49 126.872 494.017 120.41 494.14C113.352 493.973 106.39 495.807 100.33 499.43C94.3854 503.209 89.3433 508.248 85.5599 514.19L84.2199 516.19L83.3499 513.91C81.0044 507.813 76.6426 502.703 70.9899 499.43C64.6797 495.768 57.4844 493.91 50.1899 494.06C46.1092 494.087 42.0587 494.762 38.1899 496.06V507.7C40.3966 507.211 42.6498 506.963 44.9099 506.96C52.4499 506.96 58.5799 509.48 63.1399 514.45C67.6999 519.42 69.9599 526.05 69.9599 534.27V595.43H86.55V531.2C86.5753 526.997 87.8645 522.9 90.2499 519.44C92.7784 515.667 96.1952 512.573 100.2 510.43Z" fill="white"/>
<path d="M320.55 573.52C325.42 565.71 327.88 556.52 327.88 546.34C327.88 536.16 325.42 526.9 320.56 519.12C315.691 511.321 308.824 504.968 300.67 500.72C291.879 496.359 282.198 494.09 272.385 494.09C262.572 494.09 252.891 496.359 244.1 500.72C235.952 504.976 229.086 511.327 224.21 519.12C219.35 526.92 216.88 536.12 216.88 546.34C216.709 555.911 219.254 565.335 224.22 573.52C224.87 574.52 225.6 575.59 226.46 576.72L238.55 564.62C235.657 558.965 234.181 552.692 234.25 546.34C234.12 539.428 235.847 532.608 239.25 526.59C242.499 520.938 247.22 516.272 252.91 513.09C258.93 509.892 265.643 508.221 272.46 508.221C279.277 508.221 285.989 509.892 292.01 513.09C297.695 516.278 302.415 520.942 305.67 526.59C308.939 532.654 310.65 539.436 310.65 546.325C310.65 553.214 308.939 559.996 305.67 566.06C302.425 571.726 297.704 576.405 292.01 579.6C286.051 582.901 279.331 584.583 272.52 584.48C265.975 584.575 259.509 583.046 253.7 580.03L242.65 591.03C243.14 591.34 243.65 591.65 244.13 591.91C252.921 596.271 262.602 598.54 272.415 598.54C282.228 598.54 291.909 596.271 300.7 591.91C308.846 587.671 315.703 581.319 320.55 573.52Z" fill="white"/>
<path d="M497.36 550.78L538.65 595.45H559.72L511.6 543.96L557.27 497.23H535.98L497.36 536.43V550.78Z" fill="white"/>
<path d="M382.37 205.84C378.413 206.123 374.438 206.07 370.49 205.68L332.64 374.43H344.64L344.71 374.15C347.43 363.15 352.65 339.09 358.71 311.2C364.04 286.43 374.41 240.61 382.37 205.84Z" fill="white"/>
<path d="M354.34 230.43L356.97 218.71C309.97 211.34 274.59 169.08 274.59 120.18C274.592 101.352 279.834 82.8969 289.73 66.8799L290 66.4299L278.55 62.7599L278.42 62.9899C268.315 80.3566 262.985 100.087 262.97 120.18C262.97 174.43 302.21 221.75 354.34 230.43Z" fill="white"/>
<path d="M378.09 195.52C389.972 195.488 401.692 192.764 412.369 187.553C423.047 182.341 432.405 174.777 439.74 165.43L439.93 165.19L432.75 155.05L432.5 155.4C419.45 173.23 399.62 183.43 378.09 183.43C361.915 183.362 346.316 177.424 334.19 166.72C322.299 156.266 314.26 142.125 311.36 126.56L300.1 129.5C307.45 167.19 340.91 195.52 378.09 195.52Z" fill="white"/>
<path d="M487.91 39.22C487.91 17.59 470.82 0 449.83 0C442.238 0.0465243 434.834 2.3662 428.572 6.65994C422.311 10.9537 417.479 17.0246 414.7 24.09L377.83 172.95H378.09C382.186 172.948 386.271 172.498 390.27 171.61L390.87 169.05L425.98 27.43C428.089 22.8773 431.447 19.017 435.664 16.2979C439.881 13.5788 444.783 12.1126 449.8 12.07C464.39 12.07 476.25 24.27 476.25 39.25C476.265 45.0508 474.422 50.7039 470.993 55.3823C467.563 60.0606 462.726 63.5185 457.19 65.25L425.19 73.72L421.91 86.93L461.03 76.61L461.29 76.46C469.047 73.7891 475.779 68.7674 480.55 62.0932C485.321 55.419 487.893 47.424 487.91 39.22Z" fill="white"/>
<path d="M123.91 152.1V164.61L253.11 130.93C252.78 127.14 252.61 123.6 252.61 120.14C252.61 119.63 252.61 119.14 252.61 118.6L123.91 152.1Z" fill="white"/>
<path d="M285.5 110.06C285.11 113.406 284.909 116.771 284.9 120.14C284.9 120.97 284.9 121.81 284.99 122.62L386.19 96.23L389.47 82.96L285.5 110.06Z" fill="white"/>
</svg>
