<svg xmlns="http://www.w3.org/2000/svg" width="200" height="200" fill="none" viewBox="0 0 200 200">
  <mask id="a" width="140" height="99" x="30" y="76" maskUnits="userSpaceOnUse" style="mask-type:luminance">
    <path fill="#fff" d="M30.9 76.368h138.2V175H30.9V76.368Z"/>
  </mask>
  <g mask="url(#a)">
    <path fill="#373535" d="M70.882 112.918c-.045-.054-.106-.094-.155-.148-4.044-3.602-10.24-4.151-14.962-1.673l-.261-23.772c0-6.04-5.521-10.957-12.3-10.957-6.783 0-12.304 4.917-12.304 10.957v41.932c0 1.822.693 3.629 1.954 5.066L57.92 162.85c.428.479.659 1.069.659 1.683v7.699c0 1.504 1.386 2.738 3.078 2.738h30.754c1.692 0 3.075-1.234 3.075-2.738v-30.827c0-1.973-.8-3.875-2.245-5.369l-22.359-23.118Zm-33.185 18.023a2.558 2.558 0 0 1-.647-1.684V87.325c0-3.028 2.753-5.477 6.153-5.477 3.398 0 6.15 2.449 6.15 5.504l.368 33.195c0 .04.016.084.016.124.048 2.712 1.2 5.423 3.49 7.504l8.23 8.684c1.09 1.15 3.029 1.298 4.336.327 1.291-.971 1.461-2.698.367-3.861l-8.301-8.765c-.064-.054-.11-.109-.17-.165-2.4-2.135-2.4-5.615 0-7.75 2.367-2.108 6.226-2.138 8.626-.068l22.282 23.02c.478.493.754 1.137.754 1.794v28.1H64.732v-4.958c0-1.821-.693-3.629-1.954-5.066l-25.08-28.526Zm119.3-54.573c-6.782 0-12.3 4.917-12.3 10.93l-.262 23.799a13.447 13.447 0 0 0-6.259-1.531c-3.291 0-6.381 1.136-8.706 3.204-.061.04-.106.094-.152.148l-22.376 23.118c-1.428 1.494-2.228 3.396-2.228 5.369v30.827c0 1.504 1.383 2.738 3.076 2.738h30.753c1.693 0 3.079-1.234 3.079-2.738v-7.699c0-.614.228-1.204.644-1.683l25.065-28.527c1.261-1.437 1.969-3.231 1.969-5.066V87.325c0-6.04-5.521-10.957-12.303-10.957Zm6.153 52.889a2.56 2.56 0 0 1-.647 1.684l-25.066 28.526c-1.261 1.437-1.969 3.231-1.969 5.066v4.958h-24.603v-28.086c0-.658.261-1.288.738-1.794l22.282-23.021c1.152-1.001 2.659-1.534 4.276-1.534 1.644 0 3.181.574 4.351 1.602 2.4 2.138 2.4 5.615 0 7.75-.061.057-.122.111-.17.165l-8.302 8.765c-1.094 1.15-.939 2.89.368 3.862 1.307.971 3.245.836 4.336-.328l8.229-8.683c2.291-2.081 3.442-4.779 3.488-7.491 0-.04.015-.094.015-.138l.371-33.235c0-3.028 2.753-5.477 6.15-5.477 3.4 0 6.153 2.449 6.153 5.477v41.932Z"/>
  </g>
  <path fill="#373535" d="M90.863 75.996c.197.379.599.632 1 .695 0 0 26.339 3.656 26.406 3.656.464 0 .932-.253 1.2-.632L125 70.387l2.27 1.953c.264.19.598.316.866.316.334 0 .732-.127.999-.443.468-.502.468-1.324-.067-1.763l-13.002-11.095c-.398-.442-1.066-.252-1.066-.252l-21.406 3.656c-.732.126-1.2.755-1.066 1.45.133.629.668 1.008 1.333 1.008.067 0 3.136-.505 3.136-.505l-6.07 10.15c-.197.379-.264.758-.064 1.134Zm9.6-11.85 14.403-2.459 8.136 6.933-5.469 9.142-23.337-3.277 6.267-10.339Z"/>
  <path fill="#373535" d="M116.333 68.746c-.665-.316-1.467-.063-1.801.57l-1.598 2.897-8.069-1.198.999-1.7c.335-.632.134-1.387-.534-1.703-.665-.316-1.464-.126-1.799.506l-2.002 3.276c-.197.38-.197.819-.067 1.198.201.38.535.632 1.003.692 0 0 11.067 1.577 11.134 1.577a1.42 1.42 0 0 0 1.2-.692l2.002-3.656c.465-.695.201-1.45-.468-1.767Z"/>
  <mask id="b" width="20" height="36" x="120" y="25" maskUnits="userSpaceOnUse" style="mask-type:luminance">
    <path fill="#fff" d="M120.021 25h19.819v35.556h-19.819V25Z"/>
  </mask>
  <g mask="url(#b)">
    <path fill="#373535" d="M139.073 45.55c0-.693-.602-1.262-1.334-1.262h-2.801l-2.203-7.312c1.602-.881 2.668-2.458 2.668-4.351 0-2.332-1.731-4.285-3.998-4.854v-1.51c0-.695-.601-1.261-1.333-1.261-.736 0-1.334.566-1.334 1.26v1.511c-2.337.569-4.001 2.522-4.001 4.854 0 1.83 1.066 3.47 2.667 4.351l-2.203 7.312H122.4c-.732 0-1.333.57-1.333 1.261 0 .692.601 1.261 1.333 1.261h2.003l-3.466 11.537c-.201.692.197 1.384.932 1.574a.763.763 0 0 0 .334.063c.599 0 1.133-.376 1.267-.945l3.667-12.229h5.799l2.467 8.194.802 2.648.401 1.387c.13.569.732.945 1.267.945.13 0 .264 0 .331-.063.735-.19 1.133-.882.936-1.574l-.268-.885-.601-2.079-2.534-8.51h2.002c.732-.063 1.334-.632 1.334-1.324Zm-11.137-1.262 2.002-6.62h.264l2.002 6.62h-4.268Zm2.136-9.141c-1.468 0-2.668-1.135-2.668-2.522 0-1.384 1.2-2.522 2.668-2.522 1.464 0 2.663 1.138 2.663 2.522 0 1.387-1.199 2.522-2.663 2.522Z"/>
  </g>
  <path fill="#373535" d="M90.994 59.608c-.599-.379-1.464-.253-1.865.376L75.39 79.525c-.264.38-.264.822-.134 1.198.2.38.602.695 1.003.758l36.871 5.297 4.536-1.893-38.873-5.61 12.6-17.904a1.207 1.207 0 0 0-.4-1.763Z"/>
  <path fill="#373535" d="M63.521 76.627c-.798 4.349 2.203 8.447 6.736 9.202.066 0 33.676 4.73 33.676 4.73l4.599-1.892s-37.674-5.296-37.807-5.296c-3.069-.502-5.134-3.34-4.603-6.241.267-1.384 1.4-2.708 3.002-3.467 1.066-.502 3.336-1.197 6.133.127.602.316 1.334.126 1.735-.443l14.737-20.991 27.205 3.217.732-2.459-26.336-3.153 5.465-7.815a1.213 1.213 0 0 0-.398-1.767l-.4-.19c-6.134-2.142-11.004 1.83-12.736 4.226L64.855 73.6c-.067.127-1.133 2.146-1.334 3.028ZM87.594 45.93c.134-.19 3.27-4.352 8.002-3.657L75.324 71.08c-1.731-.566-3.533-.692-5.201-.376l17.471-24.775Zm49.744 30.697 11.201-18.28c.2-.38.267-.822.066-1.198-.197-.379-.598-.632-.999-.695l-6.401-.755.602 1.953c.067.253.13.442.13.695l3.336.376-12.07 19.668 4.135-1.764Z"/>
  <mask id="c" width="42" height="29" x="101" y="77" maskUnits="userSpaceOnUse" style="mask-type:luminance">
    <path fill="#fff" d="M101.104 77.59h41.439v27.847h-41.439V77.589Z"/>
  </mask>
  <g mask="url(#c)">
    <path fill="#373535" d="M131.405 105.687c.532 0 1.067-.313 1.267-.819l9.6-25.153c.2-.502.067-1.008-.334-1.324a1.516 1.516 0 0 0-1.464-.25l-38.142 15.886c-.535.19-.802.692-.802 1.197 0 .502.401.945.869 1.135l28.538 9.265c.201.063.335.063.468.063Zm-24.871-10.652 32.205-13.427-8.136 21.244-24.069-7.817Z"/>
  </g>
  <path fill="#373535" d="M133.002 87.217a1.521 1.521 0 0 0-1.467-.253l-13.534 5.612c-.535.19-.802.692-.802 1.198s.401.945.936 1.134l10.135 3.277c.133.063.267.063.468.063.531 0 1.066-.312 1.266-.818l3.4-8.952c.133-.376 0-.882-.402-1.261Zm-5.134 8.26-5.665-1.83 7.534-3.15-1.869 4.98Zm4.67-40.786-4.803-.569-.732 2.459 6.334.755-.799-2.645Z"/>
</svg>
