<svg xmlns="http://www.w3.org/2000/svg" width="200" height="201" fill="none" viewBox="0 0 200 201">
  <mask id="a" width="148" height="151" x="26" y="25" maskUnits="userSpaceOnUse" style="mask-type:luminance">
    <path fill="#fff" d="M26.293 25.759h147.414v150H26.293v-150Z"/>
  </mask>
  <g mask="url(#a)">
    <path fill="#503D32" fill-rule="evenodd" d="M129.744 40.932a2.493 2.493 0 0 1 2.489 2.496 2.493 2.493 0 0 1-2.489 2.498 2.495 2.495 0 0 1-2.492-2.498 2.494 2.494 0 0 1 2.492-2.496Zm0 9.54c3.89 0 7.048-3.162 7.048-7.044 0-3.883-3.158-7.042-7.048-7.042-3.889 0-7.048 3.162-7.048 7.042a7.052 7.052 0 0 0 7.048 7.044Zm21.626 77.987a2.267 2.267 0 0 1-2.259 2.273l-35.877.004a2.276 2.276 0 0 1-2.28-2.273 2.271 2.271 0 0 1 2.28-2.273l35.877-.004a2.267 2.267 0 0 1 2.259 2.273Zm0-11.85a2.264 2.264 0 0 1-2.259 2.273l-35.877.004a2.274 2.274 0 1 1 0-4.546h35.877a2.266 2.266 0 0 1 2.259 2.269Zm-76.33 6.328 15.42 20.383H75.04v-20.383Zm-2.28 24.929h22.276c1.879 0 2.926-2.152 1.802-3.644l-22.26-29.431c-1.316-1.734-4.08-.792-4.08 1.37l.003 29.432a2.265 2.265 0 0 0 2.26 2.273Zm96.407 1.707-.003-79.704c0-6.324-8.752-11.675-19.117-11.675h-6.779l8.984 21.713h7.028a2.285 2.285 0 0 1 2.28 2.273 2.287 2.287 0 0 1-2.28 2.273h-5.132l3.412 8.25a6.882 6.882 0 0 1-1.782 7.766l3.563 8.59a2.28 2.28 0 0 1-4.216 1.738l-3.543-8.587c-2.882.121-5.6-1.448-6.762-4.243l-5.593-13.514h-18.965l-5.594 13.514c-1.128 2.718-3.805 4.384-6.741 4.236l-3.563 8.594a2.27 2.27 0 0 1-2.108 1.404c-1.59 0-2.721-1.636-2.088-3.142l3.546-8.587a6.875 6.875 0 0 1-1.781-7.768l3.428-8.25h-5.153a2.27 2.27 0 0 1-2.263-2.274 2.272 2.272 0 0 1 2.263-2.273h7.028l8.985-21.713-68.154.003c-6.422 0-12.955-2.135-17.201-6.253v79.701c0 6.327 8.755 11.675 19.117 11.675h.768l-.004-77.734c0-2.162 2.765-3.102 4.082-1.371l59.839 79.105 37.298-.003c6.425.003 12.948 2.134 17.201 6.256Zm-17.201 21.646h-.69v-23.353h.69c9.483 0 17.201 5.236 17.201 11.675 0 6.439-7.718 11.678-17.201 11.678Zm-38.981-6.189 12.395-.003-35.045-46.332-35.045-46.33v11.294h3.829a2.274 2.274 0 1 1 0 4.546h-3.83V104h3.833a2.274 2.274 0 1 1 0 4.547H55.29v15.796h3.832a2.274 2.274 0 1 1 0 4.546H55.29v15.8h3.832a2.272 2.272 0 0 1 2.28 2.273 2.276 2.276 0 0 1-2.28 2.274H55.29v15.793h14.692v-5.095a2.274 2.274 0 0 1 2.28-2.273 2.27 2.27 0 0 1 2.263 2.273v5.095h14.689v-5.095a2.27 2.27 0 1 1 4.543 0v5.095h14.692v-5.095a2.267 2.267 0 0 1 2.259-2.276 2.274 2.274 0 0 1 2.28 2.276l-.003 5.095ZM48.067 30.301h.69v23.35h-.69c-9.483 0-17.201-5.236-17.201-11.675 0-6.438 7.718-11.675 17.2-11.675Zm81.677 2.485c-5.862 0-10.651 4.779-10.651 10.642 0 4.842 3.256 8.934 7.681 10.22h5.94c4.422-1.287 7.678-5.378 7.678-10.22 0-5.866-4.768-10.642-10.648-10.642Zm0 28.742 7.604 18.38h-15.207l7.603-18.38Zm-17.584 18.38 9.711-23.489a14.991 14.991 0 0 0 4.331 1.778l-8.985 21.71h-5.057Zm-4.749 17.59a2.333 2.333 0 0 1-1.266-3.057l4.119-9.988h5.074l-4.862 11.78c-.499 1.175-1.876 1.758-3.065 1.266Zm34.86-17.59-8.984-21.71a15.125 15.125 0 0 0 4.33-1.779l9.729 23.488h-5.075Zm11.093 14.533c.768 1.91-1.142 3.856-3.065 3.051a2.322 2.322 0 0 1-1.266-1.263l-4.883-11.776h5.075l4.139 9.988Zm13.062-36.338c-4.405-2.872-10.23-4.455-16.379-4.455h-8.658l-.131-.323a15.085 15.085 0 0 0 3.677-9.897c0-8.375-6.819-15.188-15.191-15.188-8.371 0-15.19 6.816-15.19 15.191a15.08 15.08 0 0 0 3.677 9.894l-.135.326h-64.8V28.028a2.274 2.274 0 0 0-2.28-2.273h-2.95c-5.67 0-11.034 1.603-15.096 4.51-4.29 3.074-6.664 7.233-6.664 11.711l.004 89.672c0 4.519 2.603 8.698 7.297 11.766 4.404 2.873 10.23 4.452 16.38 4.452h.764V167.3a2.27 2.27 0 0 0 2.26 2.276l76.929-.003c1.882 0 2.946-2.145 1.818-3.644L118.1 147.866h28.637v25.626a2.275 2.275 0 0 0 2.279 2.273h2.95c5.671 0 11.035-1.603 15.097-4.512 4.29-3.071 6.664-7.233 6.664-11.712l-.004-89.672c0-4.52-2.603-8.698-7.297-11.766Z" clip-rule="evenodd"/>
  </g>
</svg>
